<svg width="24" height="24" viewBox="0 0 24 24" fill="none" xmlns="http://www.w3.org/2000/svg">
    <path d="M23.5395 6.31969C23.4544 6.11403 23.3101 5.93825 23.1251 5.8146C22.94 5.69094 22.7224 5.62496 22.4998 5.625H19.8579C19.4139 4.94152 18.8078 4.37844 18.0935 3.98588C17.3792 3.59332 16.5789 3.38347 15.7639 3.375C15.128 3.36646 14.4968 3.48524 13.9076 3.72433C13.3183 3.96342 12.7828 4.318 12.3326 4.76719C11.8697 5.22121 11.5023 5.76322 11.2519 6.36134C11.0016 6.95945 10.8733 7.6016 10.8748 8.25V8.32313C7.42201 7.23844 4.6517 4.48875 4.6217 4.45781C4.47075 4.30569 4.27948 4.19985 4.07042 4.15274C3.86135 4.10564 3.64318 4.11922 3.44158 4.19191C3.23997 4.26459 3.06332 4.39335 2.93242 4.56303C2.80151 4.7327 2.72179 4.93624 2.70263 5.14969C2.11107 11.7281 5.01357 15.255 6.64576 16.6922C5.28732 18.0778 3.37482 18.8138 3.35607 18.8213C3.19706 18.8804 3.05349 18.9748 2.93612 19.0974C2.81875 19.2199 2.73062 19.3674 2.67831 19.5288C2.62601 19.6902 2.6109 19.8614 2.63411 20.0294C2.65731 20.1975 2.71824 20.3582 2.81232 20.4994C2.99982 20.7703 4.07232 22.125 7.49982 22.125C14.2733 22.125 19.9404 16.9444 20.5873 10.2534L23.2948 7.54594C23.4523 7.38868 23.5597 7.18822 23.6032 6.96994C23.6468 6.75166 23.6246 6.52536 23.5395 6.31969ZM18.7048 8.955C18.5109 9.1481 18.3945 9.4056 18.3776 9.67875C18.0129 15.3966 13.2354 19.875 7.49982 19.875C7.10827 19.8773 6.71703 19.8525 6.32888 19.8009C7.31232 19.1766 8.41107 18.2878 9.18732 17.1244C9.27223 16.997 9.33026 16.8537 9.35786 16.7031C9.38545 16.5525 9.38203 16.3979 9.34781 16.2487C9.31358 16.0996 9.24927 15.9589 9.1588 15.8354C9.06834 15.712 8.95363 15.6082 8.8217 15.5306C8.81045 15.5241 7.66576 14.8284 6.62513 13.2413C5.58451 11.6541 5.00701 9.7725 4.89451 7.63688C6.50326 8.85 8.99982 10.3866 11.8123 10.86C11.9737 10.8873 12.1391 10.879 12.2969 10.8358C12.4548 10.7926 12.6013 10.7154 12.7263 10.6097C12.8513 10.504 12.9517 10.3724 13.0205 10.2239C13.0893 10.0754 13.1249 9.91367 13.1248 9.75V8.25C13.124 7.89963 13.1934 7.55264 13.3288 7.22949C13.4642 6.90635 13.6629 6.61357 13.9133 6.36844C14.1523 6.12929 14.4368 5.94032 14.7499 5.81265C15.0631 5.68499 15.3986 5.62119 15.7367 5.625C16.2479 5.63185 16.7467 5.78355 17.1752 6.0625C17.6036 6.34145 17.9442 6.73621 18.1573 7.20094C18.245 7.40142 18.3893 7.57196 18.5725 7.69168C18.7556 7.81141 18.9697 7.87512 19.1886 7.875H19.7811L18.7048 8.955Z" fill="currentColor"/>
</svg>