<svg width="24" height="24" viewBox="0 0 24 24" fill="none" xmlns="http://www.w3.org/2000/svg">
    <path d="M22.5 19.125H21.375V10.8328C21.3746 10.5739 21.3208 10.3179 21.2169 10.0808C21.113 9.84364 20.9613 9.6305 20.7712 9.45468L13.2759 2.37937L13.2609 2.36531C12.9165 2.05008 12.4665 1.87524 11.9995 1.87524C11.5326 1.87524 11.0826 2.05008 10.7381 2.36531L10.7222 2.37937L3.22875 9.45468C3.03872 9.6305 2.88702 9.84364 2.78313 10.0808C2.67924 10.3179 2.62541 10.5739 2.625 10.8328V19.125H1.5C1.20163 19.125 0.915483 19.2435 0.704505 19.4545C0.493526 19.6655 0.375 19.9516 0.375 20.25C0.375 20.5484 0.493526 20.8345 0.704505 21.0455C0.915483 21.2565 1.20163 21.375 1.5 21.375H22.5C22.7984 21.375 23.0845 21.2565 23.2955 21.0455C23.5065 20.8345 23.625 20.5484 23.625 20.25C23.625 19.9516 23.5065 19.6655 23.2955 19.4545C23.0845 19.2435 22.7984 19.125 22.5 19.125ZM4.875 10.995L12 4.26843L19.125 10.995V19.125H15.375V15C15.375 14.7538 15.3265 14.5099 15.2323 14.2825C15.138 14.055 14.9999 13.8483 14.8258 13.6742C14.6517 13.5001 14.445 13.362 14.2175 13.2677C13.99 13.1735 13.7462 13.125 13.5 13.125H10.5C10.0027 13.125 9.52581 13.3225 9.17418 13.6742C8.82254 14.0258 8.625 14.5027 8.625 15V19.125H4.875V10.995ZM13.125 19.125H10.875V15.375H13.125V19.125Z" fill="currentColor"/>
</svg>