<svg width="44" height="18" viewBox="0 0 44 18" fill="none" xmlns="http://www.w3.org/2000/svg">
    <g clip-path="url(#clip0_133_1199)">
        <path d="M8.03964 2.23717C7.52402 2.82323 6.69884 3.28564 5.87376 3.21952C5.77063 2.42711 6.17454 1.585 6.64728 1.06489C7.16291 0.462326 8.06542 0.0330174 8.79598 0C8.88192 0.825517 8.54667 1.63452 8.03964 2.23717ZM8.78738 3.37644C7.59268 3.3104 6.56994 4.02853 6.00267 4.02853C5.42688 4.02853 4.55874 3.40946 3.61335 3.42596C2.38435 3.44247 1.24121 4.11107 0.613783 5.17605C-0.675452 7.30592 0.278626 10.4595 1.52481 12.1931C2.13505 13.0516 2.8656 13.9927 3.82819 13.9597C4.7393 13.9266 5.10024 13.3901 6.20041 13.3901C7.30909 13.3901 7.62714 13.9597 8.58973 13.9432C9.58669 13.9266 10.2141 13.0847 10.8244 12.2261C11.5205 11.252 11.8041 10.3026 11.8213 10.253C11.8041 10.2365 9.89615 9.53492 9.87896 7.42148C9.86178 5.65488 11.383 4.81286 11.4518 4.76333C10.5922 3.54153 9.25153 3.40946 8.78738 3.37644ZM15.689 0.982349V13.8524H17.7689V9.45238H20.6481C23.2781 9.45238 25.126 7.7188 25.126 5.20915C25.126 2.69958 23.3125 0.982432 20.7169 0.982432H15.6889L15.689 0.982349ZM17.7689 2.66648H20.1668C21.9717 2.66648 23.0031 3.59105 23.0031 5.21732C23.0031 6.84359 21.9717 7.7765 20.1582 7.7765H17.7689V2.66648ZM28.9249 13.9514C30.2313 13.9514 31.4431 13.3158 31.9932 12.3086H32.0361V13.8524H33.9614V7.44624C33.9614 5.58885 32.4144 4.39181 30.0335 4.39181C27.8247 4.39181 26.1917 5.60536 26.1315 7.2729H28.0052C28.1599 6.4804 28.9248 5.9603 29.9734 5.9603C31.2454 5.9603 31.9588 6.52993 31.9588 7.57839V8.28827L29.3631 8.43684C26.948 8.57717 25.6417 9.52658 25.6417 11.1777C25.6417 12.8452 26.991 13.9514 28.9249 13.9514ZM29.4835 12.4242C28.3749 12.4242 27.67 11.9124 27.67 11.1281C27.67 10.3192 28.349 9.84859 29.6468 9.7743L31.9588 9.63397V10.3604C31.9588 11.5657 30.8931 12.4242 29.4835 12.4242H29.4835ZM36.5312 17.3526C38.5596 17.3526 39.5136 16.6097 40.3472 14.356L44 4.51562H41.8857L39.4362 12.1187H39.3932L36.9438 4.51562H34.7693L38.2931 13.8854L38.104 14.455C37.786 15.4208 37.2703 15.7924 36.3507 15.7924C36.1874 15.7924 35.8695 15.7759 35.7405 15.7594V17.3031C35.8608 17.3361 36.3764 17.3526 36.5312 17.3526Z" fill="currentColor"/>
    </g>
    <defs>
        <clipPath id="clip0_133_1199">
            <rect width="44" height="17.4167" fill="currentColor"/>
        </clipPath>
    </defs>
</svg>