<svg width="24" height="24" viewBox="0 0 24 24" fill="none" xmlns="http://www.w3.org/2000/svg">
    <path d="M22.5 4.875H1.5C1.20163 4.875 0.915483 4.99353 0.704505 5.2045C0.493526 5.41548 0.375 5.70163 0.375 6V18C0.375 18.2984 0.493526 18.5845 0.704505 18.7955C0.915483 19.0065 1.20163 19.125 1.5 19.125H22.5C22.7984 19.125 23.0845 19.0065 23.2955 18.7955C23.5065 18.5845 23.625 18.2984 23.625 18V6C23.625 5.70163 23.5065 5.41548 23.2955 5.2045C23.0845 4.99353 22.7984 4.875 22.5 4.875ZM16.9884 16.875H7.01156C6.78896 15.7952 6.25487 14.8043 5.47529 14.0247C4.6957 13.2451 3.70479 12.711 2.625 12.4884V11.5116C3.70479 11.289 4.6957 10.7549 5.47529 9.97529C6.25487 9.1957 6.78896 8.20479 7.01156 7.125H16.9884C17.211 8.20479 17.7451 9.1957 18.5247 9.97529C19.3043 10.7549 20.2952 11.289 21.375 11.5116V12.4884C20.2952 12.711 19.3043 13.2451 18.5247 14.0247C17.7451 14.8043 17.211 15.7952 16.9884 16.875ZM21.375 9.18188C20.9012 9.01274 20.4709 8.74048 20.1152 8.38477C19.7595 8.02906 19.4873 7.59877 19.3181 7.125H21.375V9.18188ZM4.68187 7.125C4.51274 7.59877 4.24048 8.02906 3.88477 8.38477C3.52906 8.74048 3.09877 9.01274 2.625 9.18188V7.125H4.68187ZM2.625 14.8181C3.09877 14.9873 3.52906 15.2595 3.88477 15.6152C4.24048 15.9709 4.51274 16.4012 4.68187 16.875H2.625V14.8181ZM19.3181 16.875C19.4873 16.4012 19.7595 15.9709 20.1152 15.6152C20.4709 15.2595 20.9012 14.9873 21.375 14.8181V16.875H19.3181ZM12 8.25C11.2583 8.25 10.5333 8.46993 9.91661 8.88199C9.29993 9.29404 8.81928 9.87971 8.53545 10.5649C8.25162 11.2502 8.17736 12.0042 8.32205 12.7316C8.46675 13.459 8.8239 14.1272 9.34835 14.6517C9.8728 15.1761 10.541 15.5333 11.2684 15.6779C11.9958 15.8226 12.7498 15.7484 13.4351 15.4645C14.1203 15.1807 14.706 14.7001 15.118 14.0834C15.5301 13.4667 15.75 12.7417 15.75 12C15.75 11.0054 15.3549 10.0516 14.6517 9.34835C13.9484 8.64509 12.9946 8.25 12 8.25ZM12 13.5C11.7033 13.5 11.4133 13.412 11.1666 13.2472C10.92 13.0824 10.7277 12.8481 10.6142 12.574C10.5006 12.2999 10.4709 11.9983 10.5288 11.7074C10.5867 11.4164 10.7296 11.1491 10.9393 10.9393C11.1491 10.7296 11.4164 10.5867 11.7074 10.5288C11.9983 10.4709 12.2999 10.5006 12.574 10.6142C12.8481 10.7277 13.0824 10.92 13.2472 11.1666C13.412 11.4133 13.5 11.7033 13.5 12C13.5 12.3978 13.342 12.7794 13.0607 13.0607C12.7794 13.342 12.3978 13.5 12 13.5Z" fill="currentColor"/>
</svg>