<svg width="24" height="24" viewBox="0 0 24 24" fill="none" xmlns="http://www.w3.org/2000/svg">
    <path d="M22.1249 13.5C22.1232 15.1902 21.451 16.8107 20.2558 18.0059C19.0606 19.2011 17.4401 19.8733 15.7499 19.875H7.49991C7.20154 19.875 6.91539 19.7565 6.70442 19.5455C6.49344 19.3345 6.37491 19.0484 6.37491 18.75C6.37491 18.4516 6.49344 18.1655 6.70442 17.9545C6.91539 17.7435 7.20154 17.625 7.49991 17.625H15.7499C16.8439 17.625 17.8931 17.1904 18.6667 16.4168C19.4403 15.6432 19.8749 14.594 19.8749 13.5C19.8749 12.406 19.4403 11.3568 18.6667 10.5832C17.8931 9.8096 16.8439 9.37501 15.7499 9.37501H5.71866L8.29866 11.9541C8.51 12.1654 8.62874 12.4521 8.62874 12.7509C8.62874 13.0498 8.51 13.3365 8.29866 13.5478C8.08732 13.7592 7.80067 13.8779 7.50179 13.8779C7.2029 13.8779 6.91625 13.7592 6.70491 13.5478L2.20491 9.04782C2.10003 8.9433 2.01681 8.81911 1.96003 8.68236C1.90325 8.54562 1.87402 8.39901 1.87402 8.25094C1.87402 8.10288 1.90325 7.95627 1.96003 7.81952C2.01681 7.68278 2.10003 7.55859 2.20491 7.45407L6.70491 2.95407C6.91625 2.74272 7.2029 2.62399 7.50179 2.62399C7.80067 2.62399 8.08732 2.74272 8.29866 2.95407C8.51 3.16541 8.62874 3.45206 8.62874 3.75094C8.62874 4.04983 8.51 4.33647 8.29866 4.54782L5.71866 7.12501H15.7499C17.4401 7.12699 19.0604 7.79928 20.2555 8.99439C21.4506 10.1895 22.1229 11.8099 22.1249 13.5Z" fill="currentColor"/>
</svg>