<svg width="24" height="24" viewBox="0 0 24 24" fill="none" xmlns="http://www.w3.org/2000/svg">
    <path d="M12 7.12501C11.0358 7.12501 10.0933 7.41092 9.2916 7.94659C8.48991 8.48226 7.86507 9.24364 7.49609 10.1344C7.12712 11.0252 7.03058 12.0054 7.21868 12.9511C7.40678 13.8967 7.87108 14.7654 8.55286 15.4472C9.23464 16.1289 10.1033 16.5932 11.0489 16.7813C11.9946 16.9694 12.9748 16.8729 13.8656 16.5039C14.7564 16.1349 15.5177 15.5101 16.0534 14.7084C16.5891 13.9067 16.875 12.9642 16.875 12C16.8735 10.7075 16.3594 9.46842 15.4455 8.55451C14.5316 7.64059 13.2925 7.1265 12 7.12501ZM12 14.625C11.4808 14.625 10.9733 14.4711 10.5416 14.1826C10.11 13.8942 9.7735 13.4842 9.57482 13.0046C9.37614 12.5249 9.32416 11.9971 9.42545 11.4879C9.52673 10.9787 9.77674 10.511 10.1439 10.1439C10.511 9.77674 10.9787 9.52673 11.4879 9.42545C11.9971 9.32416 12.5249 9.37614 13.0046 9.57482C13.4842 9.7735 13.8942 10.11 14.1826 10.5416C14.4711 10.9733 14.625 11.4808 14.625 12C14.625 12.6962 14.3484 13.3639 13.8562 13.8562C13.3639 14.3484 12.6962 14.625 12 14.625ZM22.6744 9.97782C22.6427 9.81936 22.5772 9.66959 22.4824 9.53872C22.3876 9.40784 22.2657 9.29892 22.125 9.21938L19.5197 7.73344L19.5094 4.79813C19.5088 4.63527 19.4729 4.47448 19.4041 4.32686C19.3353 4.17924 19.2353 4.04831 19.1109 3.94313C18.061 3.05483 16.8522 2.37373 15.5484 1.93594C15.3997 1.88578 15.2422 1.86729 15.0859 1.88166C14.9296 1.89603 14.778 1.94294 14.6409 2.01938L12 3.49407L9.35907 2.01844C9.22182 1.94158 9.06997 1.89436 8.91333 1.87983C8.75669 1.86529 8.59875 1.88377 8.44969 1.93407C7.14559 2.37367 5.93672 3.05668 4.88719 3.94688C4.76326 4.05195 4.66356 4.18261 4.59494 4.32988C4.52632 4.47715 4.49042 4.63754 4.48969 4.80001L4.47657 7.73813L1.87501 9.22032C1.7343 9.30016 1.61246 9.40942 1.51782 9.54063C1.42317 9.67184 1.35794 9.82192 1.32657 9.98063C1.06172 11.3148 1.06172 12.688 1.32657 14.0222C1.35819 14.1806 1.42354 14.3303 1.51817 14.4612C1.61281 14.592 1.73451 14.701 1.87501 14.7806L4.48313 16.2666L4.49344 19.2019C4.49401 19.3647 4.52993 19.5255 4.59872 19.6732C4.66752 19.8208 4.76754 19.9517 4.89188 20.0569C5.94178 20.9452 7.15065 21.6263 8.45438 22.0641C8.6031 22.1142 8.76067 22.1327 8.91696 22.1184C9.07325 22.104 9.2248 22.0571 9.36188 21.9806L12 20.5059L14.6381 21.9816C14.7754 22.0584 14.9272 22.1057 15.0839 22.1202C15.2405 22.1347 15.3985 22.1162 15.5475 22.0659C16.8516 21.6263 18.0605 20.9433 19.11 20.0531C19.2339 19.9481 19.3336 19.8174 19.4023 19.6701C19.4709 19.5229 19.5068 19.3625 19.5075 19.2L19.5206 16.2619L22.1278 14.7797C22.2685 14.6999 22.3904 14.5906 22.485 14.4594C22.5797 14.3282 22.6449 14.1781 22.6763 14.0194C22.9405 12.6851 22.9399 11.3119 22.6744 9.97782ZM20.5528 13.0884L18.0328 14.5209C17.8538 14.6224 17.7062 14.7713 17.6063 14.9513C17.5556 15.045 17.5022 15.1322 17.4469 15.2213C17.3358 15.3986 17.2764 15.6035 17.2753 15.8128L17.2622 18.6563C16.6557 19.1127 15.9915 19.4868 15.2869 19.7691L12.7416 18.345C12.5737 18.251 12.3846 18.2016 12.1922 18.2016H12.165C12.0581 18.2016 11.9494 18.2016 11.8425 18.2016C11.6415 18.1968 11.4428 18.2457 11.2669 18.3431L8.71876 19.7644C8.01297 19.4835 7.34724 19.111 6.73876 18.6563L6.72844 15.8213C6.72758 15.6116 6.66815 15.4064 6.55688 15.2288C6.50251 15.1406 6.44813 15.0497 6.39751 14.9588C6.2975 14.7799 6.15026 14.632 5.97188 14.5313L3.45001 13.0903C3.35204 12.3674 3.35204 11.6345 3.45001 10.9116L5.97001 9.47907C6.14875 9.3776 6.29627 9.2291 6.39657 9.04969C6.44719 8.95594 6.50063 8.86782 6.55594 8.77876C6.66705 8.60137 6.72646 8.3965 6.72751 8.18719L6.73782 5.34376C7.34453 4.88868 8.00872 4.51576 8.71313 4.23469L11.2584 5.65876C11.4343 5.75739 11.6335 5.80663 11.835 5.80126C11.9419 5.80126 12.0506 5.80126 12.1575 5.80126C12.3585 5.80601 12.5572 5.75715 12.7331 5.65969L15.2813 4.23563C15.987 4.51647 16.6528 4.88905 17.2613 5.34376L17.2716 8.17876C17.2724 8.38838 17.3319 8.5936 17.4431 8.77126C17.4975 8.85938 17.5519 8.95032 17.6025 9.04126C17.7025 9.22008 17.8498 9.36797 18.0281 9.46876L20.55 10.9059C20.6493 11.63 20.6502 12.3641 20.5528 13.0884Z" fill="currentColor"/>
</svg>