<svg width="24" height="24" viewBox="0 0 24 24" fill="none" xmlns="http://www.w3.org/2000/svg">
    <path d="M11.0867 1.0999C11.3802 0.476372 11.5269 0.164607 11.726 0.0649986C11.8993 -0.0216662 12.1007 -0.0216662 12.274 0.0649986C12.4731 0.164607 12.6198 0.476372 12.9133 1.0999L15.6971 7.01547C15.7838 7.19955 15.8271 7.29159 15.8904 7.36305C15.9464 7.42633 16.0136 7.47759 16.0883 7.51401C16.1726 7.55514 16.2695 7.56999 16.4631 7.59968L22.6902 8.55436C23.3459 8.6549 23.6738 8.70516 23.8255 8.87315C23.9576 9.01932 24.0196 9.22016 23.9945 9.41977C23.9656 9.64918 23.7283 9.89169 23.2535 10.3767L18.7493 14.9784C18.6089 15.1218 18.5386 15.1935 18.4933 15.2789C18.4532 15.3544 18.4275 15.4375 18.4176 15.5233C18.4064 15.6203 18.4229 15.7216 18.4561 15.9242L19.5189 22.4239C19.631 23.1094 19.687 23.4522 19.5817 23.6556C19.49 23.8326 19.3271 23.9567 19.1383 23.9934C18.9214 24.0356 18.6279 23.8737 18.041 23.55L12.4741 20.4792C12.3006 20.3836 12.2139 20.3357 12.1225 20.3169C12.0416 20.3003 11.9584 20.3003 11.8775 20.3169C11.7861 20.3357 11.6994 20.3836 11.5259 20.4792L5.95901 23.55C5.3721 23.8737 5.07865 24.0356 4.86166 23.9934C4.67287 23.9567 4.50997 23.8326 4.41832 23.6556C4.31299 23.4522 4.36904 23.1094 4.48113 22.4239L5.54393 15.9242C5.57707 15.7216 5.59364 15.6203 5.58243 15.5233C5.5725 15.4375 5.54677 15.3544 5.50666 15.2789C5.46136 15.1935 5.39115 15.1218 5.25074 14.9784L0.746471 10.3767C0.271736 9.89169 0.0343686 9.64918 0.00548393 9.41977C-0.0196473 9.22016 0.0424386 9.01932 0.174456 8.87315C0.32619 8.70516 0.654059 8.6549 1.3098 8.55436L7.53688 7.59968C7.73054 7.56999 7.82736 7.55514 7.91169 7.51401C7.98635 7.47759 8.05357 7.42633 8.10962 7.36305C8.17292 7.29159 8.21623 7.19955 8.30286 7.01547L11.0867 1.0999Z" stroke="currentColor"/>
</svg>
