<svg width="24" height="24" viewBox="0 0 24 24" fill="none" xmlns="http://www.w3.org/2000/svg">
    <path d="M12 1.875C9.99747 1.875 8.0399 2.46882 6.37486 3.58137C4.70981 4.69392 3.41206 6.27523 2.64572 8.12533C1.87939 9.97543 1.67888 12.0112 2.06955 13.9753C2.46023 15.9393 3.42454 17.7435 4.84055 19.1595C6.25656 20.5755 8.06066 21.5398 10.0247 21.9305C11.9888 22.3211 14.0246 22.1206 15.8747 21.3543C17.7248 20.5879 19.3061 19.2902 20.4186 17.6251C21.5312 15.9601 22.125 14.0025 22.125 12C22.122 9.3156 21.0543 6.74199 19.1562 4.84383C17.258 2.94567 14.6844 1.87798 12 1.875ZM13.125 19.7934V14.625H15C15.2984 14.625 15.5845 14.5065 15.7955 14.2955C16.0065 14.0845 16.125 13.7984 16.125 13.5C16.125 13.2016 16.0065 12.9155 15.7955 12.7045C15.5845 12.4935 15.2984 12.375 15 12.375H13.125V10.5C13.125 10.2016 13.2435 9.91548 13.4545 9.7045C13.6655 9.49353 13.9516 9.375 14.25 9.375H15.75C16.0484 9.375 16.3345 9.25647 16.5455 9.0455C16.7565 8.83452 16.875 8.54837 16.875 8.25C16.875 7.95163 16.7565 7.66548 16.5455 7.4545C16.3345 7.24353 16.0484 7.125 15.75 7.125H14.25C13.3549 7.125 12.4965 7.48058 11.8635 8.11351C11.2306 8.74645 10.875 9.60489 10.875 10.5V12.375H9C8.70164 12.375 8.41549 12.4935 8.20451 12.7045C7.99353 12.9155 7.875 13.2016 7.875 13.5C7.875 13.7984 7.99353 14.0845 8.20451 14.2955C8.41549 14.5065 8.70164 14.625 9 14.625H10.875V19.7934C8.90447 19.509 7.1148 18.4888 5.86617 16.938C4.61755 15.3873 4.00265 13.4211 4.14522 11.4353C4.2878 9.44942 5.17727 7.59128 6.63463 6.23481C8.09198 4.87833 10.009 4.12421 12 4.12421C13.991 4.12421 15.908 4.87833 17.3654 6.23481C18.8227 7.59128 19.7122 9.44942 19.8548 11.4353C19.9974 13.4211 19.3825 15.3873 18.1338 16.938C16.8852 18.4888 15.0955 19.509 13.125 19.7934Z" fill="currentColor"/>
</svg>