<svg width="24" height="24" viewBox="0 0 24 24" fill="none" xmlns="http://www.w3.org/2000/svg">
    <path d="M10.875 20.25C10.875 20.5484 10.7565 20.8345 10.5455 21.0455C10.3345 21.2565 10.0484 21.375 9.75 21.375H4.5C4.00272 21.375 3.52581 21.1775 3.17417 20.8258C2.82254 20.4742 2.625 19.9973 2.625 19.5V4.5C2.625 4.00272 2.82254 3.52581 3.17417 3.17417C3.52581 2.82254 4.00272 2.625 4.5 2.625H9.75C10.0484 2.625 10.3345 2.74353 10.5455 2.9545C10.7565 3.16548 10.875 3.45163 10.875 3.75C10.875 4.04837 10.7565 4.33452 10.5455 4.5455C10.3345 4.75647 10.0484 4.875 9.75 4.875H4.875V19.125H9.75C10.0484 19.125 10.3345 19.2435 10.5455 19.4545C10.7565 19.6655 10.875 19.9516 10.875 20.25ZM21.0459 11.2041L17.2959 7.45406C17.0846 7.24272 16.7979 7.12399 16.4991 7.12399C16.2002 7.12399 15.9135 7.24272 15.7022 7.45406C15.4908 7.66541 15.3721 7.95205 15.3721 8.25094C15.3721 8.54982 15.4908 8.83647 15.7022 9.04781L17.5312 10.875H9.75C9.45163 10.875 9.16548 10.9935 8.9545 11.2045C8.74353 11.4155 8.625 11.7016 8.625 12C8.625 12.2984 8.74353 12.5845 8.9545 12.7955C9.16548 13.0065 9.45163 13.125 9.75 13.125H17.5312L15.7013 14.9541C15.4899 15.1654 15.3712 15.4521 15.3712 15.7509C15.3712 16.0498 15.4899 16.3365 15.7013 16.5478C15.9126 16.7592 16.1992 16.8779 16.4981 16.8779C16.797 16.8779 17.0837 16.7592 17.295 16.5478L21.045 12.7978C21.1499 12.6934 21.2332 12.5692 21.2901 12.4325C21.347 12.2958 21.3763 12.1492 21.3764 12.0011C21.3764 11.8531 21.3473 11.7064 21.2906 11.5697C21.2339 11.4329 21.1508 11.3086 21.0459 11.2041Z" fill="currentColor"/>
</svg>