<svg width="24" height="24" viewBox="0 0 24 24" fill="none" xmlns="http://www.w3.org/2000/svg">
    <path d="M13.5 9C13.5 8.70333 13.588 8.41332 13.7528 8.16665C13.9176 7.91997 14.1519 7.72771 14.426 7.61418C14.7001 7.50065 15.0017 7.47094 15.2926 7.52882C15.5836 7.5867 15.8509 7.72956 16.0607 7.93934C16.2704 8.14912 16.4133 8.41639 16.4712 8.70736C16.5291 8.99834 16.4994 9.29994 16.3858 9.57403C16.2723 9.84811 16.08 10.0824 15.8334 10.2472C15.5867 10.412 15.2967 10.5 15 10.5C14.6022 10.5 14.2206 10.342 13.9393 10.0607C13.658 9.77936 13.5 9.39782 13.5 9ZM22.125 5.25V18.75C22.125 19.2473 21.9275 19.7242 21.5758 20.0758C21.2242 20.4275 20.7473 20.625 20.25 20.625H3.75C3.25272 20.625 2.77581 20.4275 2.42417 20.0758C2.07254 19.7242 1.875 19.2473 1.875 18.75V5.25C1.875 4.75272 2.07254 4.27581 2.42417 3.92417C2.77581 3.57254 3.25272 3.375 3.75 3.375H20.25C20.7473 3.375 21.2242 3.57254 21.5758 3.92417C21.9275 4.27581 22.125 4.75272 22.125 5.25ZM4.125 5.625V13.0988L7.29938 9.92438C7.65099 9.57287 8.12782 9.3754 8.625 9.3754C9.12218 9.3754 9.59901 9.57287 9.95062 9.92438L13.8103 13.7812L15.4209 12.1716C15.7726 11.8201 16.2494 11.6226 16.7466 11.6226C17.2437 11.6226 17.7206 11.8201 18.0722 12.1716L19.875 13.9772V5.625H4.125ZM4.125 18.375H15.2194L8.625 11.7806L4.125 16.2806V18.375ZM19.875 18.375V17.1562L16.7466 14.0278L15.4012 15.375L18.4012 18.375H19.875Z" fill="currentColor"/>
</svg>