<svg width="37" height="12" viewBox="0 0 37 12" fill="none" xmlns="http://www.w3.org/2000/svg">
    <g clip-path="url(#clip0_133_1198)">
        <path d="M26.3216 1.09102C25.4693 0.780473 24.5685 0.624638 23.6614 0.630855C20.7281 0.630855 18.6564 2.10852 18.6418 4.22969C18.6234 5.78802 20.1139 6.66619 21.2414 7.18685C22.3983 7.72219 22.7851 8.05952 22.7814 8.53802C22.7741 9.26586 21.8574 9.59585 21.0049 9.59585C19.8334 9.59585 19.1936 9.43269 18.2091 9.02385L17.8443 8.85336L17.4281 11.2954C18.1413 11.5924 19.4264 11.8472 20.7538 11.8692C23.8723 11.8692 25.9109 10.4007 25.9348 8.14386C25.9604 6.89902 25.1538 5.95852 23.4561 5.18119C22.4239 4.67702 21.7841 4.33969 21.7841 3.82819C21.7841 3.37535 22.3323 2.89136 23.4781 2.89136C24.2407 2.8729 24.9985 3.01598 25.7019 3.31119L25.9769 3.43402L26.3931 1.07452L26.3216 1.09102ZM33.9336 0.828855H31.6419C30.9288 0.828855 30.3916 1.02502 30.0799 1.73269L25.6726 11.717H28.7911L29.4144 10.0799L33.2204 10.0835C33.3103 10.4667 33.5853 11.717 33.5853 11.717H36.3353L33.9336 0.828855ZM14.4233 0.737188H17.3951L15.5361 11.6309H12.5679L14.4233 0.733521V0.737188ZM6.87909 6.74135L7.18709 8.25386L10.0911 0.828855H13.2389L8.56209 11.7024H5.42159L2.85492 2.49535C2.81335 2.34354 2.71572 2.21315 2.58175 2.13052C1.65665 1.65264 0.676452 1.28999 -0.336914 1.05069L-0.296581 0.82152H4.48659C5.13559 0.847187 5.65809 1.05069 5.83225 1.74369L6.87725 6.74685L6.87909 6.74135ZM30.2669 7.85235L31.4513 4.80535C31.4366 4.83835 31.6951 4.17652 31.8454 3.76769L32.0489 4.70819L32.7364 7.85052H30.2651L30.2669 7.85235Z" fill="currentColor"/>
    </g>
    <defs>
        <clipPath id="clip0_133_1198">
            <rect width="37" height="12" fill="currentColor"/>
        </clipPath>
    </defs>
</svg>