<svg width="24" height="24" viewBox="0 0 24 24" fill="none" xmlns="http://www.w3.org/2000/svg">
    <path d="M12 16.125C13.2925 16.1235 14.5316 15.6094 15.4455 14.6955C16.3594 13.7816 16.8735 12.5425 16.875 11.25V6C16.875 4.70707 16.3614 3.46709 15.4471 2.55285C14.5329 1.63861 13.2929 1.125 12 1.125C10.7071 1.125 9.46709 1.63861 8.55285 2.55285C7.63861 3.46709 7.125 4.70707 7.125 6V11.25C7.12649 12.5425 7.64058 13.7816 8.5545 14.6955C9.46842 15.6094 10.7075 16.1235 12 16.125ZM9.375 6C9.375 5.30381 9.65156 4.63613 10.1438 4.14384C10.6361 3.65156 11.3038 3.375 12 3.375C12.6962 3.375 13.3639 3.65156 13.8562 4.14384C14.3484 4.63613 14.625 5.30381 14.625 6V11.25C14.625 11.9462 14.3484 12.6139 13.8562 13.1062C13.3639 13.5984 12.6962 13.875 12 13.875C11.3038 13.875 10.6361 13.5984 10.1438 13.1062C9.65156 12.6139 9.375 11.9462 9.375 11.25V6ZM13.125 19.8019V21.75C13.125 22.0484 13.0065 22.3345 12.7955 22.5455C12.5845 22.7565 12.2984 22.875 12 22.875C11.7016 22.875 11.4155 22.7565 11.2045 22.5455C10.9935 22.3345 10.875 22.0484 10.875 21.75V19.8019C8.80129 19.5262 6.89805 18.5074 5.51871 16.9347C4.13937 15.3619 3.37765 13.342 3.375 11.25C3.375 10.9516 3.49353 10.6655 3.7045 10.4545C3.91548 10.2435 4.20163 10.125 4.5 10.125C4.79837 10.125 5.08452 10.2435 5.2955 10.4545C5.50647 10.6655 5.625 10.9516 5.625 11.25C5.625 12.9408 6.29665 14.5623 7.49219 15.7578C8.68774 16.9534 10.3092 17.625 12 17.625C13.6908 17.625 15.3123 16.9534 16.5078 15.7578C17.7034 14.5623 18.375 12.9408 18.375 11.25C18.375 10.9516 18.4935 10.6655 18.7045 10.4545C18.9155 10.2435 19.2016 10.125 19.5 10.125C19.7984 10.125 20.0845 10.2435 20.2955 10.4545C20.5065 10.6655 20.625 10.9516 20.625 11.25C20.6223 13.342 19.8606 15.3619 18.4813 16.9347C17.1019 18.5074 15.1987 19.5262 13.125 19.8019Z" fill="currentColor"/>
</svg>