<svg width="24" height="24" viewBox="0 0 24 24" fill="none" xmlns="http://www.w3.org/2000/svg">
    <path d="M23.1966 10.9688L21.8841 7.6875C21.7727 7.40973 21.5804 7.17184 21.3321 7.00467C21.0839 6.83751 20.7912 6.74878 20.4919 6.75H17.25V6C17.25 5.80109 17.171 5.61032 17.0303 5.46967C16.8897 5.32902 16.6989 5.25 16.5 5.25H2.25C1.85218 5.25 1.47064 5.40804 1.18934 5.68934C0.908035 5.97064 0.75 6.35218 0.75 6.75V17.25C0.75 17.6478 0.908035 18.0294 1.18934 18.3107C1.47064 18.592 1.85218 18.75 2.25 18.75H3.84375C4.00898 19.3953 4.38428 19.9673 4.91048 20.3757C5.43669 20.7842 6.08387 21.0059 6.75 21.0059C7.41613 21.0059 8.06331 20.7842 8.58952 20.3757C9.11572 19.9673 9.49102 19.3953 9.65625 18.75H14.3438C14.509 19.3953 14.8843 19.9673 15.4105 20.3757C15.9367 20.7842 16.5839 21.0059 17.25 21.0059C17.9161 21.0059 18.5633 20.7842 19.0895 20.3757C19.6157 19.9673 19.991 19.3953 20.1562 18.75H21.75C22.1478 18.75 22.5294 18.592 22.8107 18.3107C23.092 18.0294 23.25 17.6478 23.25 17.25V11.25C23.2501 11.1537 23.232 11.0583 23.1966 10.9688ZM6.75 19.5C6.45333 19.5 6.16332 19.412 5.91665 19.2472C5.66997 19.0824 5.47771 18.8481 5.36418 18.574C5.25065 18.2999 5.22094 17.9983 5.27882 17.7074C5.3367 17.4164 5.47956 17.1491 5.68934 16.9393C5.89912 16.7296 6.16639 16.5867 6.45736 16.5288C6.74834 16.4709 7.04994 16.5006 7.32403 16.6142C7.59811 16.7277 7.83238 16.92 7.9972 17.1666C8.16203 17.4133 8.25 17.7033 8.25 18C8.25 18.3978 8.09196 18.7794 7.81066 19.0607C7.52936 19.342 7.14782 19.5 6.75 19.5ZM2.25 12.75V6.75H15.75V12.75H2.25ZM17.25 19.5C16.9533 19.5 16.6633 19.412 16.4166 19.2472C16.17 19.0824 15.9777 18.8481 15.8642 18.574C15.7506 18.2999 15.7209 17.9983 15.7788 17.7074C15.8367 17.4164 15.9796 17.1491 16.1893 16.9393C16.3991 16.7296 16.6664 16.5867 16.9574 16.5288C17.2483 16.4709 17.5499 16.5006 17.824 16.6142C18.0981 16.7277 18.3324 16.92 18.4972 17.1666C18.662 17.4133 18.75 17.7033 18.75 18C18.75 18.3978 18.592 18.7794 18.3107 19.0607C18.0294 19.342 17.6478 19.5 17.25 19.5ZM17.25 10.5V8.25H20.4919L21.3919 10.5H17.25Z" fill="currentColor"/>
</svg>